# Blender 3.4.1
# www.blender.org
mtllib GemCrystal.mtl
o Cube.001
v -5.573813 4.974642 0.000000
v -4.730081 2.472144 -0.882974
v -4.730081 2.472144 0.882974
v -6.417546 2.472144 0.882974
v -6.417546 2.472144 -0.882974
v -5.573813 -0.039493 0.000000
vn -0.0000 0.3327 0.9430
vn -0.9476 0.3195 -0.0000
vn 0.9476 0.3195 -0.0000
vn -0.0000 0.3327 -0.9430
vn -0.0000 -0.3317 0.9434
vn 0.9479 -0.3184 -0.0000
vn -0.9479 -0.3184 -0.0000
vn -0.0000 -0.3317 -0.9434
vt 0.625000 1.000000
vt 0.625000 0.250000
vt 0.625000 0.750000
vt 0.625000 0.500000
vt 0.375000 0.500000
vt 0.375000 0.750000
vt 0.375000 1.000000
vt 0.375000 0.000000
vt 0.375000 0.250000
vt 0.375000 0.750000
vt 0.375000 0.500000
vt 0.375000 0.000000
vt 0.375000 0.250000
s 0
usemtl Material.001
f 3/6/1 1/1/1 4/7/1
f 4/8/2 1/2/2 5/9/2
f 2/5/3 1/3/3 3/6/3
f 5/9/4 1/4/4 2/5/4
f 3/6/5 4/7/5 6/10/5
f 2/5/6 3/6/6 6/11/6
f 4/8/7 5/9/7 6/12/7
f 5/9/8 2/5/8 6/13/8
